# xmcd
#
# Track frame offsets:
#	225
#	11727
#	21989
#	30945
#	37930
#	49701
#	59091
#	71930
#	83621
#	94914
#	113527
#	126297
#	136967
#	146366
#	159739
#	172261
#	183442
#	197632
#	212126
#	224825
#	236619
#	247189
#	257344
#	271726
#
# Disc length: 3749 seconds
#
# Revision: 1
# Processed by: cddbd v1.5.2PL0 Copyright (c) Steve Scherf et al.
# Submitted via: audiograbber 1.83.01
#
DISCID=640ea218
DTITLE=Karl Denver - Wimoweh
DYEAR=1900
DGENRE=Country
TTITLE0=Wimoweh
TTITLE1=China Doll
TTITLE2=Open Up Dem Pearly Gates
TTITLE3=Shin Gan Goo
TTITLE4=Mexicali Rose
TTITLE5=Vella Langa
TTITLE6=Zimba
TTITLE7=Rose Marie
TTITLE8=Blue Yodel
TTITLE9=If I Had My Way
TTITLE10=Marcheta
TTITLE11=The Peanut Vendor
TTITLE12=Canoe Song
TTITLE13=She Moved Thro' The Fair
TTITLE14=Careless Love
TTITLE15=Three Lovely Lasses From Bannion 
TTITLE16=Silver And Gold
TTITLE17=O'Brian The Brave Engineer
TTITLE18=Walk On Boy
TTITLE19=Sierra Sue
TTITLE20=Moonlight Becomes You 
TTITLE21=Weary Blues
TTITLE22=Far Away From Blitz
TTITLE23=Highland Fling
EXTD=
EXTT0=
EXTT1=
EXTT2=
EXTT3=
EXTT4=
EXTT5=
EXTT6=
EXTT7=
EXTT8=
EXTT9=
EXTT10=
EXTT11=
EXTT12=
EXTT13=
EXTT14=
EXTT15=
EXTT16=
EXTT17=
EXTT18=
EXTT19=
EXTT20=
EXTT21=
EXTT22=
EXTT23=
PLAYORDER=
